<svg xmlns="http://www.w3.org/2000/svg" width="1024" height="1024" viewBox="0 0 48 48">
    <path fill="#3F51B5" d="M0,16c0-2.209,1.791-4,4-4h40c2.209,0,4,1.791,4,4v16c0,2.209-1.791,4-4,4H4c-2.209,0-4-1.791-4-4V16z"></path><path fill="#E8EAF6" d="M23 24.693L20 24.693 20 27.332 24 27.332 24 29 18 29 18 19.047 24 19.047 24 20.722 20 20.722 20 23.073 23 23.073zM12.896 26.266l1.675-7.219h2.242L13.942 29h-2.092L9 19.047h2.229L12.896 26.266zM28.008 25.363H27.01V29H25v-9.953h3.207c1.007 0 1.785.261 2.334.782.549.522.824 1.264.824 2.226 0 1.321-.481 2.247-1.443 2.775l1.744 4.074V29h-2.16L28.008 25.363zM27.01 23.688h1.143c.4 0 .701-.133.902-.4.2-.266.301-.623.301-1.069 0-.998-.391-1.497-1.17-1.497H27.01V23.688zM33 29v-9.953h3.076c1.039 0 1.829.231 2.368.693.541.463.811 1.141.811 2.034 0 .506-.111.941-.335 1.306s-.528.631-.916.8c.446.128.79.384 1.032.769.242.386.362.86.362 1.426 0 .966-.266 1.695-.796 2.188C38.071 28.754 37.302 29 36.295 29H33zM35.01 23.21h1.046c.789 0 1.183-.408 1.183-1.224 0-.451-.091-.774-.273-.971s-.479-.294-.889-.294H35.01V23.21zM35.01 24.673v2.659h1.285c.36 0 .634-.111.82-.335s.28-.54.28-.95c0-.894-.324-1.352-.971-1.374H35.01z"></path>
</svg>